<svg version="1.1" id="Layer_1" xmlns="http://www.w3.org/2000/svg" xmlns:xlink="http://www.w3.org/1999/xlink" x="0px" y="0px"
	 width="100%" viewBox="0 0 2000 2000" enable-background="new 0 0 2000 2000" xml:space="preserve">
<path fill="#000000" opacity="1.000000" stroke="none" 
	d="
M1.000000,731.000000 
	C1.000000,487.333344 1.000000,244.166672 1.000000,1.000000 
	C667.666687,1.000000 1334.333374,1.000000 2001.000000,1.000000 
	C2001.000000,667.666687 2001.000000,1334.333374 2001.000000,2001.000000 
	C1334.333374,2001.000000 667.666687,2001.000000 1.000000,2001.000000 
	C1.000000,1577.833374 1.000000,1154.666626 1.000000,731.000000 
M1706.746948,1395.999390 
	C1720.634155,1382.964111 1734.521362,1369.928955 1749.013550,1356.528809 
	C1764.554443,1340.544312 1780.180542,1324.641357 1795.603882,1308.544312 
	C1804.567017,1299.189575 1813.204590,1289.522827 1822.585571,1279.692871 
	C1835.798706,1263.190186 1849.664307,1247.163452 1862.108643,1230.100220 
	C1908.729492,1166.175415 1943.077271,1096.149170 1964.357178,1019.875732 
	C1974.508545,983.490662 1982.284546,946.616150 1985.029297,908.824280 
	C1986.251099,892.001160 1988.093628,875.206055 1988.734375,858.363220 
	C1989.232178,845.277832 1988.772583,832.107117 1987.907715,819.029236 
	C1986.283691,794.470215 1985.053833,769.821533 1981.883545,745.441162 
	C1974.549805,689.042419 1958.848755,634.798584 1936.573975,582.503601 
	C1914.329468,530.279419 1885.382690,481.664276 1854.703125,434.113220 
	C1842.190674,414.719818 1827.579956,396.680176 1813.724243,377.385529 
	C1808.155151,370.559723 1802.879761,363.466858 1796.960449,356.959747 
	C1781.091431,339.515503 1764.946777,322.321991 1748.650513,304.419708 
	C1731.135376,288.597473 1713.620361,272.775208 1695.912720,256.299164 
	C1681.626343,244.693420 1667.707642,232.593918 1652.957397,221.611130 
	C1635.808716,208.842438 1617.931519,197.052277 1599.970459,184.266785 
	C1567.865479,163.630463 1535.264282,143.877060 1500.586548,127.752563 
	C1490.322632,122.980034 1480.244263,117.808723 1469.618042,112.304733 
	C1441.231689,100.678474 1413.069824,88.456535 1384.379761,77.635757 
	C1365.311401,70.444000 1345.487915,65.254578 1325.339966,58.820869 
	C1323.846924,58.160751 1322.412476,57.266506 1320.852051,56.875340 
	C1292.958252,49.882961 1265.120117,42.646263 1237.114136,36.132507 
	C1222.563843,32.748360 1207.711182,30.664845 1192.291992,27.635540 
	C1161.203369,23.722635 1130.155762,19.432331 1099.009521,16.049610 
	C1082.428101,14.248733 1065.676025,14.018461 1048.078369,12.896202 
	C1004.014526,11.401994 959.978088,11.513260 915.115295,15.029106 
	C888.509094,17.863590 861.872803,20.447384 835.309753,23.640732 
	C822.469727,25.184328 809.767395,27.873323 796.171204,29.973988 
	C753.063232,37.373882 710.705200,47.903950 668.055237,60.613018 
	C637.821045,71.299683 607.377808,81.438797 577.427795,92.870056 
	C558.221130,100.200829 539.741455,109.436287 520.217041,117.929962 
	C493.889954,131.858292 467.216095,145.177933 441.349762,159.914963 
	C422.005493,170.936096 403.702637,183.785019 384.265289,196.006378 
	C368.031525,207.839722 351.298187,219.054443 335.688293,231.660294 
	C315.380798,248.059662 295.965546,265.563934 275.618378,282.892365 
	C230.692490,323.443970 192.928528,370.331238 155.497787,418.368011 
	C117.132240,464.486816 86.055290,515.164307 61.383736,569.768066 
	C42.627346,611.280212 28.301493,654.289368 18.744850,698.882568 
	C10.368556,737.967957 4.706837,777.330688 3.844520,817.380920 
	C2.681930,871.377136 6.240122,924.901306 17.564783,977.817871 
	C32.278214,1046.569092 57.023514,1111.494019 92.430916,1172.191162 
	C103.898796,1191.850220 117.299904,1210.381348 129.996323,1230.061401 
	C157.418564,1268.119629 188.588959,1302.846191 223.369781,1334.285767 
	C234.450775,1344.302246 246.242111,1353.532959 258.056549,1363.715454 
	C263.930176,1368.623047 270.059387,1373.258057 275.634796,1378.483887 
	C306.171356,1407.105957 338.912109,1432.994507 372.875427,1457.380249 
	C381.622284,1463.660522 390.472443,1469.796753 399.153351,1476.929321 
	C399.142822,1617.958740 399.131866,1758.988037 399.131042,1900.017456 
	C399.131042,1901.010620 399.271606,1902.003784 399.302368,1903.417480 
	C399.621307,1903.310059 399.940216,1903.202515 400.904327,1902.936157 
	C429.047241,1879.561401 457.209320,1856.209717 485.327850,1832.805664 
	C514.978149,1808.126587 544.586975,1783.397461 574.842896,1758.353516 
	C628.721069,1713.571777 682.629822,1668.826782 736.404236,1623.920776 
	C739.751160,1621.125732 742.696167,1620.391724 746.760559,1621.458130 
	C751.404785,1622.676636 756.205322,1623.299561 761.570679,1624.617432 
	C788.253967,1629.299927 814.855469,1634.537476 841.647034,1638.485718 
	C862.307922,1641.530396 883.207336,1642.956299 904.750000,1645.434937 
	C919.444336,1646.622559 934.126892,1648.616699 948.835510,1648.832886 
	C981.217224,1649.309082 1013.612183,1648.887451 1046.900879,1648.964600 
	C1054.175781,1648.631104 1061.452393,1648.330811 1068.724976,1647.953125 
	C1074.197266,1647.669067 1079.682129,1647.462524 1085.130615,1646.915161 
	C1104.137817,1645.005859 1123.163696,1643.223755 1142.120728,1640.891235 
	C1158.125488,1638.922241 1174.044556,1636.256348 1190.815552,1633.968506 
	C1206.994507,1630.979370 1223.334473,1628.665283 1239.317627,1624.854492 
	C1268.716797,1617.844971 1297.905884,1609.954834 1327.963257,1602.302734 
	C1357.774658,1591.997925 1387.784546,1582.225098 1417.325806,1571.197021 
	C1436.258667,1564.129150 1454.500488,1555.209961 1473.777100,1547.036621 
	C1498.770630,1534.123657 1524.092896,1521.800415 1548.655762,1508.114380 
	C1568.985107,1496.787354 1588.418213,1483.851685 1608.892822,1471.321045 
	C1623.597046,1460.860962 1638.675049,1450.881714 1652.911377,1439.819580 
	C1671.003906,1425.761230 1688.414307,1410.825073 1706.746948,1395.999390 
z"/>
<path fill="#3DB786" opacity="1.000000" stroke="none" 
	d="
M916.001465,15.144032 
	C959.978088,11.513260 1004.014526,11.401994 1048.505615,13.353258 
	C1043.294922,21.417000 1045.037964,30.228109 1045.035156,38.682926 
	C1044.986450,186.431580 1045.000122,334.180237 1044.999634,481.928894 
	C1044.999634,494.874695 1044.996094,507.820496 1044.557617,520.840698 
	C1026.951294,521.531982 1014.477844,529.949097 1006.411987,544.673096 
	C994.945557,565.604858 1001.236938,594.712524 1028.119873,608.068848 
	C1028.061401,666.205688 1028.016724,723.845947 1028.008179,781.486267 
	C1028.005615,799.143982 1028.101685,816.801636 1027.885254,834.657104 
	C1018.040344,838.947754 1010.997070,845.791565 1006.201416,854.936829 
	C995.205688,875.905518 1001.304504,904.743164 1028.121338,918.069092 
	C1028.062134,975.872375 1028.016846,1033.179565 1028.008423,1090.486816 
	C1028.005737,1108.477661 1028.101685,1126.468628 1027.885742,1144.656982 
	C1011.430481,1152.744385 1002.468018,1165.771729 1001.160522,1183.614014 
	C999.284485,1209.214844 1021.123901,1232.013062 1045.994751,1231.695679 
	C1045.997314,1371.043457 1045.999512,1509.937866 1046.001709,1648.832153 
	C1013.612183,1648.887451 981.217224,1649.309082 948.835510,1648.832886 
	C934.126892,1648.616699 919.444336,1646.622559 904.338867,1644.882568 
	C903.335022,1642.271240 902.246582,1640.216797 902.228210,1638.152710 
	C902.085510,1622.155884 902.087708,1606.156738 902.166199,1590.158936 
	C902.251221,1572.840332 902.588806,1555.522339 902.591064,1538.204102 
	C902.593140,1521.528931 902.191711,1504.853760 902.183289,1488.178589 
	C902.175842,1473.499634 902.600098,1458.820435 902.590698,1444.141479 
	C902.579590,1426.823364 902.193665,1409.505737 902.182739,1392.187622 
	C902.173462,1377.508789 902.600769,1362.829468 902.591370,1348.150635 
	C902.580200,1330.832520 902.193298,1313.514893 902.182373,1296.196777 
	C902.173096,1281.517822 902.601379,1266.838623 902.591919,1252.159668 
	C902.580750,1234.841553 902.181335,1217.523804 902.182434,1200.205811 
	C902.183533,1182.888062 902.598450,1165.570312 902.597656,1148.252563 
	C902.596863,1130.934692 902.177185,1113.616699 902.178284,1096.298828 
	C902.179382,1078.981079 902.601257,1061.663330 902.603577,1044.345581 
	C902.605835,1027.669922 902.165833,1010.994141 902.177551,994.318604 
	C902.191589,974.362122 902.628784,954.405579 902.605103,934.449402 
	C902.581360,914.442688 902.164001,894.436829 902.021057,874.429871 
	C901.945068,863.796997 902.080139,853.162720 902.129089,842.529053 
	C902.180725,831.301941 902.261963,820.074829 902.295227,808.847656 
	C902.323547,799.285583 902.304626,789.723328 902.302002,780.161194 
	C902.299561,771.085815 902.258179,762.010376 902.293762,752.935181 
	C902.340332,741.060730 902.610596,729.184082 902.436340,717.313538 
	C902.375122,713.147766 901.284424,708.997070 900.878174,704.562439 
	C910.564514,698.733337 920.138123,693.345520 929.474792,687.574402 
	C936.238831,683.393372 939.128967,677.122070 937.334473,669.177612 
	C934.477844,656.530579 931.220093,643.969666 928.586060,631.278137 
	C925.789551,617.803772 921.640991,604.252197 921.405396,590.676636 
	C920.872742,559.988831 922.320496,529.263672 923.105591,498.557434 
	C923.355591,488.780640 924.337097,479.019684 924.487244,469.243866 
	C924.726990,453.636475 924.551331,438.022736 924.551331,421.939056 
	C920.284485,423.938995 916.138428,425.882324 911.949402,427.418091 
	C911.604309,423.537994 911.039185,420.065521 911.037964,416.592865 
	C910.992737,289.926575 910.996216,163.260254 911.009460,36.593960 
	C911.010254,29.072460 909.590149,21.187813 916.001465,15.144032 
z"/>
<path fill="#77D55C" opacity="1.000000" stroke="none" 
	d="
M1813.923828,378.024658 
	C1827.579956,396.680176 1842.190674,414.719818 1854.703125,434.113220 
	C1885.382690,481.664276 1914.329468,530.279419 1936.573975,582.503601 
	C1958.848755,634.798584 1974.549805,689.042419 1981.883545,745.441162 
	C1985.053833,769.821533 1986.283691,794.470215 1987.907715,819.029236 
	C1988.772583,832.107117 1989.232178,845.277832 1988.734375,858.363220 
	C1988.093628,875.206055 1986.251099,892.001160 1985.029297,908.824280 
	C1982.284546,946.616150 1974.508545,983.490662 1964.357178,1019.875732 
	C1943.077271,1096.149170 1908.729492,1166.175415 1862.108643,1230.100220 
	C1849.664307,1247.163452 1835.798706,1263.190186 1821.885620,1279.847168 
	C1819.416748,1280.384399 1817.497192,1280.449951 1815.905151,1281.205688 
	C1808.988037,1284.489258 1809.022705,1284.562378 1809.000366,1276.966187 
	C1808.998901,1276.466309 1809.000000,1275.966309 1809.000000,1275.466431 
	C1809.000000,979.699097 1809.000122,683.931702 1809.001099,388.164337 
	C1809.001099,386.664734 1809.018677,385.165161 1809.023438,383.665558 
	C1809.033813,380.373993 1810.324463,378.197205 1813.923828,378.024658 
z"/>
<path fill="#1EA79C" opacity="1.000000" stroke="none" 
	d="
M399.346527,1902.996948 
	C399.271606,1902.003784 399.131042,1901.010620 399.131042,1900.017456 
	C399.131866,1758.988037 399.142822,1617.958740 399.586151,1476.448608 
	C404.530548,1475.881592 404.329956,1472.153320 404.457001,1469.438721 
	C404.749603,1463.186401 404.426636,1456.906982 404.406128,1450.638306 
	C404.375336,1441.236572 404.383759,1431.834717 404.386719,1422.432861 
	C404.389618,1413.197510 404.417328,1403.962158 404.414246,1394.726807 
	C404.411133,1385.324951 404.368469,1375.923218 404.371368,1366.521362 
	C404.374207,1357.286011 404.419952,1348.050659 404.433105,1338.815308 
	C404.446747,1329.250244 404.444916,1319.685059 404.447968,1310.119995 
	C404.450897,1301.047974 404.382172,1291.975098 404.471985,1282.904053 
	C404.566742,1273.334106 404.811707,1263.765747 405.383911,1254.180420 
	C428.012024,1259.091553 450.421692,1263.186035 473.209717,1263.832520 
	C490.990784,1264.337158 508.897461,1264.559326 526.587219,1263.036011 
	C546.446472,1261.326050 566.124634,1257.513062 585.903809,1255.107422 
	C585.949219,1256.766113 585.992859,1257.932251 585.992920,1259.098511 
	C585.997192,1360.253906 585.998169,1461.409302 585.998840,1562.564697 
	C585.998840,1563.231201 585.957397,1563.899536 585.991455,1564.564087 
	C586.171509,1568.078369 584.485352,1569.673462 581.000122,1569.991211 
	C574.018860,1570.627563 574.004883,1570.722168 574.003845,1577.716431 
	C573.996826,1625.544434 573.985596,1673.372437 574.009766,1721.200439 
	C574.016052,1733.697021 574.142639,1746.193726 574.213989,1758.690308 
	C544.586975,1783.397461 514.978149,1808.126587 485.327850,1832.805664 
	C457.209320,1856.209717 429.047241,1879.561401 400.353516,1902.988770 
	C399.802734,1903.041504 399.346527,1902.996948 399.346527,1902.996948 
z"/>
<path fill="#34B28C" opacity="1.000000" stroke="none" 
	d="
M900.663818,704.839478 
	C901.284424,708.997070 902.375122,713.147766 902.436340,717.313538 
	C902.610596,729.184082 902.340332,741.060730 902.293762,752.935181 
	C902.258179,762.010376 902.299561,771.085815 902.302002,780.161194 
	C902.304626,789.723328 902.323547,799.285583 902.295227,808.847656 
	C902.261963,820.074829 902.180725,831.301941 902.129089,842.529053 
	C902.080139,853.162720 901.945068,863.796997 902.021057,874.429871 
	C902.164001,894.436829 902.581360,914.442688 902.605103,934.449402 
	C902.628784,954.405579 902.191589,974.362122 902.177551,994.318604 
	C902.165833,1010.994141 902.605835,1027.669922 902.603577,1044.345581 
	C902.601257,1061.663330 902.179382,1078.981079 902.178284,1096.298828 
	C902.177185,1113.616699 902.596863,1130.934692 902.597656,1148.252563 
	C902.598450,1165.570312 902.183533,1182.888062 902.182434,1200.205811 
	C902.181335,1217.523804 902.580750,1234.841553 902.591919,1252.159668 
	C902.601379,1266.838623 902.173096,1281.517822 902.182373,1296.196777 
	C902.193298,1313.514893 902.580200,1330.832520 902.591370,1348.150635 
	C902.600769,1362.829468 902.173462,1377.508789 902.182739,1392.187622 
	C902.193665,1409.505737 902.579590,1426.823364 902.590698,1444.141479 
	C902.600098,1458.820435 902.175842,1473.499634 902.183289,1488.178589 
	C902.191711,1504.853760 902.593140,1521.528931 902.591064,1538.204102 
	C902.588806,1555.522339 902.251221,1572.840332 902.166199,1590.158936 
	C902.087708,1606.156738 902.085510,1622.155884 902.228210,1638.152710 
	C902.246582,1640.216797 903.335022,1642.271240 903.964233,1644.716064 
	C883.207336,1642.956299 862.307922,1641.530396 841.647034,1638.485718 
	C814.855469,1634.537476 788.253967,1629.299927 761.193054,1624.035400 
	C760.397705,1617.736572 759.736450,1612.024902 759.617065,1606.301758 
	C759.418091,1596.761108 759.575623,1587.213135 759.565613,1577.668335 
	C759.555969,1568.449585 759.524841,1559.230835 759.502136,1550.012085 
	C759.481018,1541.442017 759.424194,1532.871704 759.446350,1524.301758 
	C759.470215,1515.083008 759.598938,1505.864624 759.624329,1496.645874 
	C759.651123,1486.938110 759.608887,1477.229980 759.598572,1467.522095 
	C759.588867,1458.466431 759.580078,1449.410767 759.573486,1440.355103 
	C759.566528,1430.810303 759.566467,1421.265381 759.556335,1411.720581 
	C759.546570,1402.501831 759.521606,1393.283081 759.514893,1384.064331 
	C759.508118,1374.682495 759.511108,1365.300781 759.517944,1355.918945 
	C759.524597,1346.700195 759.543640,1337.481567 759.553406,1328.262817 
	C759.563538,1318.717896 759.582458,1309.173096 759.572571,1299.628174 
	C759.562988,1290.409424 759.518616,1281.190796 759.494995,1271.972046 
	C759.471313,1262.753296 759.420654,1253.534546 759.444275,1244.315918 
	C759.467896,1235.097046 759.601562,1225.878540 759.626831,1216.659668 
	C759.653503,1206.951904 759.800354,1197.238403 759.526428,1187.537842 
	C759.350525,1181.308350 758.509094,1175.097778 758.112549,1168.578979 
	C761.574524,1165.521973 764.995667,1162.881226 768.188904,1159.989014 
	C798.425110,1132.603149 823.877686,1101.296021 844.258972,1065.972656 
	C873.142334,1015.914307 890.767090,962.084717 897.159607,904.635376 
	C901.825317,862.704773 900.078125,821.128601 888.934448,780.264771 
	C885.944214,769.299805 881.761292,758.660095 877.771423,746.819336 
	C864.431274,756.513855 851.968384,765.005798 840.178223,774.346802 
	C832.868835,780.137878 831.076355,788.889221 832.139160,797.853088 
	C833.482666,809.183777 836.215454,820.395447 836.909241,831.746460 
	C837.937988,848.577881 838.464844,865.517334 837.787354,882.353638 
	C837.130432,898.680664 835.624512,915.099792 832.819885,931.187012 
	C827.559875,961.357727 817.304932,989.981262 802.414673,1016.863281 
	C801.383362,1014.154785 800.091187,1011.583130 800.087402,1009.009705 
	C799.979187,934.727417 800.023071,860.444885 799.910461,786.162659 
	C799.906189,783.353943 798.587952,780.547180 798.036621,777.449829 
	C816.122925,763.377869 833.674255,749.060120 852.102539,735.977478 
	C867.764648,724.858643 884.437927,715.164185 900.663818,704.839478 
z"/>
<path fill="#2AAD93" opacity="1.000000" stroke="none" 
	d="
M757.965942,1168.878662 
	C758.509094,1175.097778 759.350525,1181.308350 759.526428,1187.537842 
	C759.800354,1197.238403 759.653503,1206.951904 759.626831,1216.659668 
	C759.601562,1225.878540 759.467896,1235.097046 759.444275,1244.315918 
	C759.420654,1253.534546 759.471313,1262.753296 759.494995,1271.972046 
	C759.518616,1281.190796 759.562988,1290.409424 759.572571,1299.628174 
	C759.582458,1309.173096 759.563538,1318.717896 759.553406,1328.262817 
	C759.543640,1337.481567 759.524597,1346.700195 759.517944,1355.918945 
	C759.511108,1365.300781 759.508118,1374.682495 759.514893,1384.064331 
	C759.521606,1393.283081 759.546570,1402.501831 759.556335,1411.720581 
	C759.566467,1421.265381 759.566528,1430.810303 759.573486,1440.355103 
	C759.580078,1449.410767 759.588867,1458.466431 759.598572,1467.522095 
	C759.608887,1477.229980 759.651123,1486.938110 759.624329,1496.645874 
	C759.598938,1505.864624 759.470215,1515.083008 759.446350,1524.301758 
	C759.424194,1532.871704 759.481018,1541.442017 759.502136,1550.012085 
	C759.524841,1559.230835 759.555969,1568.449585 759.565613,1577.668335 
	C759.575623,1587.213135 759.418091,1596.761108 759.617065,1606.301758 
	C759.736450,1612.024902 760.397705,1617.736572 760.876709,1623.817383 
	C756.205322,1623.299561 751.404785,1622.676636 746.760559,1621.458130 
	C742.696167,1620.391724 739.751160,1621.125732 736.404236,1623.920776 
	C682.629822,1668.826782 628.721069,1713.571777 574.528442,1758.521973 
	C574.142639,1746.193726 574.016052,1733.697021 574.009766,1721.200439 
	C573.985596,1673.372437 573.996826,1625.544434 574.003845,1577.716431 
	C574.004883,1570.722168 574.018860,1570.627563 581.000122,1569.991211 
	C584.485352,1569.673462 586.171509,1568.078369 585.991455,1564.564087 
	C585.957397,1563.899536 585.998840,1563.231201 585.998840,1562.564697 
	C585.998169,1461.409302 585.997192,1360.253906 585.992920,1259.098511 
	C585.992859,1257.932251 585.949219,1256.766113 586.178467,1254.858765 
	C588.859558,1253.560791 591.298218,1253.044067 593.715454,1252.441284 
	C654.876404,1237.190063 709.606201,1209.293823 757.965942,1168.878662 
z"/>
<path fill="#6FD162" opacity="1.000000" stroke="none" 
	d="
M1813.823975,377.705078 
	C1810.324463,378.197205 1809.033813,380.373993 1809.023438,383.665558 
	C1809.018677,385.165161 1809.001099,386.664734 1809.001099,388.164337 
	C1809.000122,683.931702 1809.000000,979.699097 1809.000000,1275.466431 
	C1809.000000,1275.966309 1808.998901,1276.466309 1809.000366,1276.966187 
	C1809.022705,1284.562378 1808.988037,1284.489258 1815.905151,1281.205688 
	C1817.497192,1280.449951 1819.416748,1280.384399 1821.587158,1279.999023 
	C1813.204590,1289.522827 1804.567017,1299.189575 1795.603882,1308.544312 
	C1780.180542,1324.641357 1764.554443,1340.544312 1748.507568,1356.336182 
	C1747.001099,1352.918701 1745.147339,1349.698364 1745.130371,1346.468140 
	C1744.928345,1308.062866 1744.999756,1269.656006 1745.463135,1231.177246 
	C1749.257812,1231.087769 1752.588745,1231.052002 1755.919800,1231.056274 
	C1783.662842,1231.092285 1805.982910,1206.795410 1799.549194,1175.256348 
	C1795.485596,1155.335327 1776.846680,1141.040405 1756.456055,1140.995117 
	C1738.970337,1140.956299 1721.484741,1140.886963 1704.003662,1140.421021 
	C1704.172852,1136.060425 1704.448486,1132.110718 1704.480103,1128.159058 
	C1704.557617,1118.445190 1704.523071,1108.730469 1704.532959,1099.016113 
	C1704.542236,1089.957764 1704.553833,1080.899536 1704.559082,1071.841187 
	C1704.564575,1062.290405 1704.619263,1052.739380 1704.548462,1043.189087 
	C1704.491089,1035.440552 1704.146851,1027.692627 1704.174927,1019.945312 
	C1704.201172,1012.703003 1704.708984,1005.462036 1704.720581,998.220032 
	C1704.739624,986.363708 1704.530518,974.506958 1704.413818,962.650391 
	C1704.277588,948.823547 1704.137451,934.996704 1704.463501,921.103210 
	C1721.753418,921.025085 1738.581909,920.805054 1755.403564,921.049377 
	C1783.174194,921.452576 1806.061401,897.009949 1799.554688,865.259338 
	C1795.477173,845.362915 1776.832642,831.039612 1756.458252,830.996033 
	C1733.972046,830.947937 1711.485718,830.885559 1689.108398,830.479248 
	C1689.822388,828.079407 1690.923706,826.036804 1690.952515,823.979065 
	C1691.142944,810.456360 1691.057983,796.930115 1691.146606,783.405579 
	C1691.277344,763.447571 1691.540527,743.490295 1691.630127,723.532166 
	C1691.713867,704.894165 1691.727417,686.255005 1691.619263,667.617249 
	C1691.510010,648.800659 1691.213257,629.985107 1691.463257,611.102356 
	C1713.731445,611.024048 1735.535400,611.079163 1757.338013,610.935059 
	C1760.948120,610.911194 1764.744019,610.582336 1768.129150,609.435425 
	C1795.010010,600.327393 1804.211182,578.946106 1799.369995,554.944946 
	C1795.827881,537.384583 1783.777832,526.145447 1766.271851,522.219604 
	C1758.463745,520.468567 1750.107300,521.163208 1741.959717,520.370972 
	C1741.710083,518.354858 1741.307739,516.713867 1741.322876,515.076721 
	C1741.407837,505.863953 1741.737671,496.651642 1741.711304,487.440002 
	C1741.669189,472.796906 1741.280518,458.154419 1741.283569,443.511719 
	C1741.286499,428.868958 1741.725952,414.226227 1741.724243,399.583527 
	C1741.722412,384.940918 1741.273560,370.298370 1741.274780,355.655792 
	C1741.276001,341.013397 1741.675293,326.371368 1741.734619,311.728485 
	C1741.764404,304.358795 1741.598511,304.358124 1748.911621,305.028870 
	C1764.946777,322.321991 1781.091431,339.515503 1796.960449,356.959747 
	C1802.879761,363.466858 1808.155151,370.559723 1813.823975,377.705078 
z"/>
<path fill="#47BC7F" opacity="1.000000" stroke="none" 
	d="
M1044.994141,520.766357 
	C1044.996094,507.820496 1044.999634,494.874695 1044.999634,481.928894 
	C1045.000122,334.180237 1044.986450,186.431580 1045.035156,38.682926 
	C1045.037964,30.228109 1043.294922,21.417000 1048.966919,13.444796 
	C1065.676025,14.018461 1082.428101,14.248733 1099.009521,16.049610 
	C1130.155762,19.432331 1161.203369,23.722635 1192.566895,28.162889 
	C1186.721069,35.681763 1188.009766,44.197411 1188.009033,52.423100 
	C1187.995239,208.530777 1187.997070,364.638458 1187.532227,520.818237 
	C1161.642822,520.905762 1136.217041,520.948181 1110.791138,520.928284 
	C1088.858765,520.911133 1066.926514,520.823059 1044.994141,520.766357 
z"/>
<path fill="#0499AF" opacity="1.000000" stroke="none" 
	d="
M129.816711,1229.428467 
	C117.299904,1210.381348 103.898796,1191.850220 92.430916,1172.191162 
	C57.023514,1111.494019 32.278214,1046.569092 17.564783,977.817871 
	C6.240122,924.901306 2.681930,871.377136 3.844520,817.380920 
	C4.706837,777.330688 10.368556,737.967957 18.744850,698.882568 
	C28.301493,654.289368 42.627346,611.280212 61.383736,569.768066 
	C86.055290,515.164307 117.132240,464.486816 156.152496,418.203247 
	C159.945068,418.060120 160.794952,419.452698 160.057922,422.539551 
	C159.371658,425.413727 159.068893,428.438965 159.044769,431.401367 
	C158.940369,444.222565 159.054642,457.045380 158.987686,469.867096 
	C158.876633,491.138947 158.615097,512.410156 158.559555,533.682007 
	C158.528442,545.593750 158.866974,557.506226 158.887100,569.418579 
	C158.906937,581.166199 158.756668,592.914307 158.641830,604.661865 
	C158.512436,617.897583 158.339233,631.132812 158.100769,644.694031 
	C155.501190,649.134705 152.926407,653.214539 150.479843,657.369873 
	C122.729256,704.501953 104.827354,755.062988 97.748856,809.360657 
	C96.333359,820.218567 94.434120,831.100525 94.189178,842.003540 
	C93.824516,858.235168 94.440147,874.509216 95.207970,890.738342 
	C95.684662,900.814026 96.913261,910.882507 98.327652,920.880188 
	C102.277306,948.798340 108.419785,976.308228 119.192177,1002.360168 
	C128.254761,1024.277222 139.291641,1045.377930 149.107056,1066.994995 
	C148.237061,1068.111328 147.265427,1069.069580 147.259018,1070.034302 
	C147.152878,1086.006958 147.103226,1101.980469 147.174927,1117.953369 
	C147.240723,1132.608765 147.542587,1147.263062 147.602707,1161.918457 
	C147.677673,1180.191895 147.637360,1198.465942 147.544907,1216.739258 
	C147.539093,1217.890503 146.651199,1219.037231 146.173691,1220.186035 
	C145.051208,1219.649414 143.676300,1219.361572 142.854904,1218.528198 
	C140.645477,1216.286133 138.749344,1213.738647 136.584976,1211.448364 
	C134.188644,1208.912720 131.632690,1206.527710 129.146255,1204.077026 
	C128.493500,1204.352661 127.840752,1204.628296 127.188004,1204.903931 
	C127.681389,1210.806763 128.122528,1216.714722 128.694427,1222.609863 
	C128.916351,1224.897461 129.433838,1227.156494 129.816711,1229.428467 
z"/>
<path fill="#2EAF91" opacity="1.000000" stroke="none" 
	d="
M668.837280,60.479965 
	C710.705200,47.903950 753.063232,37.373882 796.572449,30.407707 
	C796.315796,37.396126 795.088257,43.950420 795.083557,50.505592 
	C794.975220,201.236160 794.991089,351.966827 795.043396,502.697479 
	C795.044922,507.164856 795.689453,511.632019 795.893250,516.399048 
	C760.636536,549.392334 727.396851,583.877625 696.773071,620.832031 
	C684.365906,635.804077 672.289429,651.050171 660.048828,665.691895 
	C660.024048,633.611694 659.990906,602.011047 660.044861,570.410522 
	C660.049072,567.948792 660.662537,565.488098 661.341431,563.072205 
	C673.218628,569.670227 684.747131,576.222961 696.479248,582.891357 
	C708.979919,569.375122 721.364624,555.984314 734.218872,542.085815 
	C726.532166,536.221619 719.536438,529.985596 711.699646,525.098328 
	C696.693176,515.739685 681.208557,507.147797 665.936768,497.782288 
	C666.063049,492.526855 666.242737,487.727295 666.272400,482.926758 
	C666.331421,473.364655 666.305664,463.802032 666.319214,454.239624 
	C666.332336,445.000702 666.347961,435.761780 666.367371,426.522858 
	C666.386780,417.287140 666.419861,408.051422 666.433167,398.815704 
	C666.446899,389.250214 666.445007,379.684692 666.448059,370.119202 
	C666.450867,361.046783 666.454590,351.974335 666.451599,342.901917 
	C666.448547,333.336395 666.443237,323.770905 666.429504,314.205383 
	C666.416260,304.969666 666.390503,295.733948 666.371033,286.498230 
	C666.351624,277.259308 666.328796,268.020386 666.315613,258.781464 
	C666.301941,249.219131 666.294189,239.656784 666.291077,230.094452 
	C666.288086,221.018860 666.294250,211.943268 666.296997,202.867676 
	C666.299866,193.305374 666.307739,183.743073 666.305420,174.180771 
	C666.303223,165.105331 666.255737,156.029755 666.291382,146.954483 
	C666.338074,135.079849 666.510315,123.205452 666.511353,111.330940 
	C666.512390,99.124809 666.131714,86.913086 666.414795,74.715332 
	C666.525269,69.954041 667.989563,65.224152 668.837280,60.479965 
z"/>
<path fill="#4FC179" opacity="1.000000" stroke="none" 
	d="
M1187.995605,520.746155 
	C1187.997070,364.638458 1187.995239,208.530777 1188.009033,52.423100 
	C1188.009766,44.197411 1186.721069,35.681763 1192.918457,28.342018 
	C1207.711182,30.664845 1222.563843,32.748360 1237.114136,36.132507 
	C1265.120117,42.646263 1292.958252,49.882961 1320.852051,56.875340 
	C1322.412476,57.266506 1323.846924,58.160751 1325.667114,59.383537 
	C1325.805298,61.085850 1326.030151,62.676102 1325.359863,63.291550 
	C1321.187256,67.123398 1322.007324,72.070358 1322.007080,76.837814 
	C1321.998413,218.167664 1321.986450,359.497498 1322.042236,500.827332 
	C1322.044800,507.466461 1322.663940,514.105347 1322.532349,520.816284 
	C1295.816528,520.904602 1269.564209,520.948730 1243.312012,520.927856 
	C1224.873169,520.913147 1206.434448,520.809875 1187.995605,520.746155 
z"/>
<path fill="#58C572" opacity="1.000000" stroke="none" 
	d="
M1322.995972,520.744324 
	C1322.663940,514.105347 1322.044800,507.466461 1322.042236,500.827332 
	C1321.986450,359.497498 1321.998413,218.167664 1322.007080,76.837814 
	C1322.007324,72.070358 1321.187256,67.123398 1325.359863,63.291550 
	C1326.030151,62.676102 1325.805298,61.085850 1325.998291,59.557545 
	C1345.487915,65.254578 1365.311401,70.444000 1384.379761,77.635757 
	C1413.069824,88.456535 1441.231689,100.678474 1469.638916,112.852493 
	C1465.625366,115.185997 1464.289429,118.740715 1464.240845,122.672653 
	C1464.100220,134.048767 1464.228394,145.428177 1464.246094,156.806305 
	C1464.261108,166.526962 1464.270142,176.247620 1464.280273,185.968277 
	C1464.289673,195.038010 1464.301392,204.107758 1464.304565,213.177490 
	C1464.307983,222.733795 1464.291504,232.290131 1464.303955,241.846420 
	C1464.316040,251.079590 1464.358521,260.312744 1464.379150,269.545898 
	C1464.399780,278.775848 1464.438599,288.005859 1464.417236,297.235718 
	C1464.389771,309.105743 1464.246948,320.975769 1464.270874,332.845551 
	C1464.294800,344.713074 1464.551514,356.580414 1464.543579,368.447693 
	C1464.535645,380.480957 1464.231323,392.514099 1464.236694,404.547241 
	C1464.241943,416.414459 1464.581543,428.281647 1464.574463,440.148743 
	C1464.567261,452.182037 1464.269165,464.214813 1464.182129,476.248444 
	C1464.074829,491.080780 1464.054077,505.913757 1463.532227,520.817993 
	C1432.658691,520.905396 1402.248779,520.945374 1371.838745,520.927551 
	C1355.557861,520.917969 1339.276855,520.808655 1322.995972,520.744324 
z"/>
<path fill="#47BC7F" opacity="1.000000" stroke="none" 
	d="
M1046.451294,1648.898438 
	C1045.999512,1509.937866 1045.997314,1371.043457 1046.458496,1231.621216 
	C1074.013550,1231.082764 1101.104980,1231.045776 1128.196533,1231.070557 
	C1148.469238,1231.089111 1168.742065,1231.187256 1189.011597,1231.744873 
	C1188.906372,1237.537842 1188.743530,1242.835449 1188.715698,1248.134033 
	C1188.665283,1257.693115 1188.702881,1267.252686 1188.689941,1276.812012 
	C1188.677246,1286.048096 1188.645264,1295.284302 1188.625366,1304.520386 
	C1188.605347,1313.753296 1188.585693,1322.986084 1188.572876,1332.218994 
	C1188.559692,1341.781616 1188.551270,1351.344116 1188.547607,1360.906738 
	C1188.544189,1369.976318 1188.547852,1379.046021 1188.551270,1388.115601 
	C1188.554932,1397.678223 1188.555908,1407.240723 1188.569092,1416.803345 
	C1188.581787,1426.036133 1188.609253,1435.269043 1188.629150,1444.501831 
	C1188.649292,1453.737915 1188.701538,1462.974243 1188.679199,1472.210205 
	C1188.650391,1484.081177 1188.531738,1495.951904 1188.506714,1507.822876 
	C1188.482056,1519.529053 1188.513550,1531.235596 1188.544800,1542.941895 
	C1188.562378,1549.536499 1188.658691,1556.130981 1188.668335,1562.725586 
	C1188.685669,1574.600098 1188.487793,1586.477905 1188.709106,1598.348145 
	C1188.929932,1610.202271 1189.554199,1622.048950 1190.001465,1633.898804 
	C1174.044556,1636.256348 1158.125488,1638.922241 1142.120728,1640.891235 
	C1123.163696,1643.223755 1104.137817,1645.005859 1085.130615,1646.915161 
	C1079.682129,1647.462524 1074.197266,1647.669067 1068.724976,1647.953125 
	C1061.452393,1648.330811 1054.175781,1648.631104 1046.451294,1648.898438 
z"/>
<path fill="#25AA97" opacity="1.000000" stroke="none" 
	d="
M668.446289,60.546494 
	C667.989563,65.224152 666.525269,69.954041 666.414795,74.715332 
	C666.131714,86.913086 666.512390,99.124809 666.511353,111.330940 
	C666.510315,123.205452 666.338074,135.079849 666.291382,146.954483 
	C666.255737,156.029755 666.303223,165.105331 666.305420,174.180771 
	C666.307739,183.743073 666.299866,193.305374 666.296997,202.867676 
	C666.294250,211.943268 666.288086,221.018860 666.291077,230.094452 
	C666.294189,239.656784 666.301941,249.219131 666.315613,258.781464 
	C666.328796,268.020386 666.351624,277.259308 666.371033,286.498230 
	C666.390503,295.733948 666.416260,304.969666 666.429504,314.205383 
	C666.443237,323.770905 666.448547,333.336395 666.451599,342.901917 
	C666.454590,351.974335 666.450867,361.046783 666.448059,370.119202 
	C666.445007,379.684692 666.446899,389.250214 666.433167,398.815704 
	C666.419861,408.051422 666.386780,417.287140 666.367371,426.522858 
	C666.347961,435.761780 666.332336,445.000702 666.319214,454.239624 
	C666.305664,463.802032 666.331421,473.364655 666.272400,482.926758 
	C666.242737,487.727295 666.063049,492.526855 665.574341,497.703339 
	C638.848999,485.908936 611.667908,475.884033 583.124146,470.653198 
	C560.943115,466.588379 538.385315,464.579834 516.086670,461.314087 
	C516.530640,458.224335 517.131226,455.483154 517.189697,452.730438 
	C517.385864,443.498322 517.435181,434.262146 517.452148,425.027344 
	C517.469177,415.794891 517.359741,406.562256 517.341858,397.329651 
	C517.318909,385.455444 517.325378,373.581146 517.331543,361.706909 
	C517.336426,352.311005 517.374451,342.915070 517.371033,333.519165 
	C517.367615,324.283264 517.323059,315.047394 517.310425,305.811493 
	C517.297363,296.252350 517.287964,286.693176 517.300964,277.134064 
	C517.313477,267.898132 517.364014,258.662292 517.384033,249.426376 
	C517.404053,240.193710 517.432007,230.960968 517.411194,221.728363 
	C517.384460,209.854706 517.253357,197.981033 517.276794,186.107590 
	C517.300171,174.236618 517.074463,162.346359 517.676697,150.501114 
	C518.181335,140.576324 513.958862,130.105682 520.671936,120.760521 
	C521.166687,120.071861 520.866516,118.812180 520.935852,117.817940 
	C539.741455,109.436287 558.221130,100.200829 577.427795,92.870056 
	C607.377808,81.438797 637.821045,71.299683 668.446289,60.546494 
z"/>
<path fill="#35B38B" opacity="1.000000" stroke="none" 
	d="
M796.034180,516.099304 
	C795.689453,511.632019 795.044922,507.164856 795.043396,502.697479 
	C794.991089,351.966827 794.975220,201.236160 795.083557,50.505592 
	C795.088257,43.950420 796.315796,37.396126 796.988159,30.442566 
	C809.767395,27.873323 822.469727,25.184328 835.309753,23.640732 
	C861.872803,20.447384 888.509094,17.863590 915.558350,15.086569 
	C909.590149,21.187813 911.010254,29.072460 911.009460,36.593960 
	C910.996216,163.260254 910.992737,289.926575 911.037964,416.592865 
	C911.039185,420.065521 911.604309,423.537994 911.643860,427.626587 
	C905.779663,431.117920 899.731323,433.367401 894.660889,436.986877 
	C879.957214,447.483032 865.301575,458.103638 851.265686,469.464264 
	C832.540466,484.620514 814.416443,500.519379 796.034180,516.099304 
z"/>
<path fill="#4FC179" opacity="1.000000" stroke="none" 
	d="
M1190.408569,1633.933594 
	C1189.554199,1622.048950 1188.929932,1610.202271 1188.709106,1598.348145 
	C1188.487793,1586.477905 1188.685669,1574.600098 1188.668335,1562.725586 
	C1188.658691,1556.130981 1188.562378,1549.536499 1188.544800,1542.941895 
	C1188.513550,1531.235596 1188.482056,1519.529053 1188.506714,1507.822876 
	C1188.531738,1495.951904 1188.650391,1484.081177 1188.679199,1472.210205 
	C1188.701538,1462.974243 1188.649292,1453.737915 1188.629150,1444.501831 
	C1188.609253,1435.269043 1188.581787,1426.036133 1188.569092,1416.803345 
	C1188.555908,1407.240723 1188.554932,1397.678223 1188.551270,1388.115601 
	C1188.547852,1379.046021 1188.544189,1369.976318 1188.547607,1360.906738 
	C1188.551270,1351.344116 1188.559692,1341.781616 1188.572876,1332.218994 
	C1188.585693,1322.986084 1188.605347,1313.753296 1188.625366,1304.520386 
	C1188.645264,1295.284302 1188.677246,1286.048096 1188.689941,1276.812012 
	C1188.702881,1267.252686 1188.665283,1257.693115 1188.715698,1248.134033 
	C1188.743530,1242.835449 1188.906372,1237.537842 1189.411621,1231.668823 
	C1209.601562,1231.086304 1229.388428,1231.045410 1249.175293,1231.070312 
	C1273.115479,1231.100464 1297.055664,1231.186523 1320.996338,1231.701416 
	C1320.997925,1351.589478 1321.034668,1471.024536 1320.886475,1590.459351 
	C1320.879639,1595.976074 1321.612427,1600.253174 1327.182617,1602.431763 
	C1297.905884,1609.954834 1268.716797,1617.844971 1239.317627,1624.854492 
	C1223.334473,1628.665283 1206.994507,1630.979370 1190.408569,1633.933594 
z"/>
<path fill="#58C572" opacity="1.000000" stroke="none" 
	d="
M1327.572998,1602.367188 
	C1321.612427,1600.253174 1320.879639,1595.976074 1320.886475,1590.459351 
	C1321.034668,1471.024536 1320.997925,1351.589478 1321.459961,1231.626465 
	C1352.835571,1231.086670 1383.748047,1231.051147 1414.660522,1231.072266 
	C1432.772217,1231.084717 1450.883911,1231.187744 1468.996094,1231.702881 
	C1468.997681,1333.810913 1469.011719,1435.465698 1468.953003,1537.120605 
	C1468.950684,1541.152100 1469.240967,1544.784302 1473.052002,1547.120728 
	C1454.500488,1555.209961 1436.258667,1564.129150 1417.325806,1571.197021 
	C1387.784546,1582.225098 1357.774658,1591.997925 1327.572998,1602.367188 
z"/>
<path fill="#62CA6B" opacity="1.000000" stroke="none" 
	d="
M1463.995850,520.746460 
	C1464.054077,505.913757 1464.074829,491.080780 1464.182129,476.248444 
	C1464.269165,464.214813 1464.567261,452.182037 1464.574463,440.148743 
	C1464.581543,428.281647 1464.241943,416.414459 1464.236694,404.547241 
	C1464.231323,392.514099 1464.535645,380.480957 1464.543579,368.447693 
	C1464.551514,356.580414 1464.294800,344.713074 1464.270874,332.845551 
	C1464.246948,320.975769 1464.389771,309.105743 1464.417236,297.235718 
	C1464.438599,288.005859 1464.399780,278.775848 1464.379150,269.545898 
	C1464.358521,260.312744 1464.316040,251.079590 1464.303955,241.846420 
	C1464.291504,232.290131 1464.307983,222.733795 1464.304565,213.177490 
	C1464.301392,204.107758 1464.289673,195.038010 1464.280273,185.968277 
	C1464.270142,176.247620 1464.261108,166.526962 1464.246094,156.806305 
	C1464.228394,145.428177 1464.100220,134.048767 1464.240845,122.672653 
	C1464.289429,118.740715 1465.625366,115.185997 1469.870361,113.110214 
	C1480.244263,117.808723 1490.322632,122.980034 1500.586548,127.752563 
	C1535.264282,143.877060 1567.865479,163.630463 1599.778809,184.610809 
	C1593.953979,185.951752 1592.920532,189.676956 1592.925171,194.826492 
	C1593.023560,303.466614 1592.998413,412.106873 1592.533691,520.818604 
	C1570.805298,520.905273 1549.540649,520.950867 1528.276001,520.926880 
	C1506.849243,520.902649 1485.422607,520.809387 1463.995850,520.746460 
z"/>
<path fill="#1BA59F" opacity="1.000000" stroke="none" 
	d="
M520.576416,117.873955 
	C520.866516,118.812180 521.166687,120.071861 520.671936,120.760521 
	C513.958862,130.105682 518.181335,140.576324 517.676697,150.501114 
	C517.074463,162.346359 517.300171,174.236618 517.276794,186.107590 
	C517.253357,197.981033 517.384460,209.854706 517.411194,221.728363 
	C517.432007,230.960968 517.404053,240.193710 517.384033,249.426376 
	C517.364014,258.662292 517.313477,267.898132 517.300964,277.134064 
	C517.287964,286.693176 517.297363,296.252350 517.310425,305.811493 
	C517.323059,315.047394 517.367615,324.283264 517.371033,333.519165 
	C517.374451,342.915070 517.336426,352.311005 517.331543,361.706909 
	C517.325378,373.581146 517.318909,385.455444 517.341858,397.329651 
	C517.359741,406.562256 517.469177,415.794891 517.452148,425.027344 
	C517.435181,434.262146 517.385864,443.498322 517.189697,452.730438 
	C517.131226,455.483154 516.530640,458.224335 515.670776,461.371918 
	C501.395508,461.847015 487.617737,461.622833 473.863708,462.092926 
	C463.567657,462.444824 453.164734,462.914520 443.052155,464.703674 
	C422.944885,468.261108 403.004883,472.764130 383.012024,476.458313 
	C383.352142,471.402802 383.954956,466.765625 383.958374,462.127991 
	C384.016357,383.329254 383.966949,304.530487 384.041382,225.731796 
	C384.050812,215.760941 384.623993,205.790634 384.936035,195.820068 
	C403.702637,183.785019 422.005493,170.936096 441.349762,159.914963 
	C467.216095,145.177933 493.889954,131.858292 520.576416,117.873955 
z"/>
<path fill="#62CA6B" opacity="1.000000" stroke="none" 
	d="
M1473.414551,1547.078613 
	C1469.240967,1544.784302 1468.950684,1541.152100 1468.953003,1537.120605 
	C1469.011719,1435.465698 1468.997681,1333.810913 1469.459839,1231.628418 
	C1493.184448,1231.087769 1516.445923,1231.045654 1539.707275,1231.070312 
	C1561.137329,1231.093018 1582.567383,1231.187744 1603.997803,1231.703735 
	C1603.998779,1307.179688 1604.032227,1382.202881 1603.930786,1457.225830 
	C1603.923584,1462.603149 1604.744385,1467.443848 1608.248535,1471.628906 
	C1588.418213,1483.851685 1568.985107,1496.787354 1548.655762,1508.114380 
	C1524.092896,1521.800415 1498.770630,1534.123657 1473.414551,1547.078613 
z"/>
<path fill="#6ACE66" opacity="1.000000" stroke="none" 
	d="
M1592.997437,520.747070 
	C1592.998413,412.106873 1593.023560,303.466614 1592.925171,194.826492 
	C1592.920532,189.676956 1593.953979,185.951752 1599.978760,184.896133 
	C1617.931519,197.052277 1635.808716,208.842438 1652.957397,221.611130 
	C1667.707642,232.593918 1681.626343,244.693420 1695.720947,256.807373 
	C1691.930054,260.125427 1688.974243,262.896729 1689.664185,268.393158 
	C1690.356445,273.908569 1689.725708,279.588776 1689.692505,285.196838 
	C1689.622314,297.074371 1689.540527,308.951935 1689.507446,320.829590 
	C1689.480347,330.561340 1689.500854,340.293365 1689.530762,350.025177 
	C1689.559082,359.263123 1689.652100,368.500885 1689.670532,377.738831 
	C1689.689087,386.980042 1689.641602,396.221405 1689.639404,405.462677 
	C1689.636963,414.864075 1689.657837,424.265472 1689.661987,433.666870 
	C1689.667358,445.548065 1689.671021,457.429260 1689.666016,469.310455 
	C1689.661987,478.711853 1689.721313,488.114166 1689.608154,497.514374 
	C1689.515015,505.259735 1689.210083,513.002563 1688.535400,520.818848 
	C1656.380249,520.843140 1624.688843,520.795105 1592.997437,520.747070 
z"/>
<path fill="#13A1A4" opacity="1.000000" stroke="none" 
	d="
M404.991028,1254.196533 
	C404.811707,1263.765747 404.566742,1273.334106 404.471985,1282.904053 
	C404.382172,1291.975098 404.450897,1301.047974 404.447968,1310.119995 
	C404.444916,1319.685059 404.446747,1329.250244 404.433105,1338.815308 
	C404.419952,1348.050659 404.374207,1357.286011 404.371368,1366.521362 
	C404.368469,1375.923218 404.411133,1385.324951 404.414246,1394.726807 
	C404.417328,1403.962158 404.389618,1413.197510 404.386719,1422.432861 
	C404.383759,1431.834717 404.375336,1441.236572 404.406128,1450.638306 
	C404.426636,1456.906982 404.749603,1463.186401 404.457001,1469.438721 
	C404.329956,1472.153320 404.530548,1475.881592 399.647034,1475.983521 
	C390.472443,1469.796753 381.622284,1463.660522 372.875427,1457.380249 
	C338.912109,1432.994507 306.171356,1407.105957 275.634796,1378.483887 
	C270.059387,1373.258057 263.930176,1368.623047 258.249939,1363.300049 
	C262.816589,1359.714478 261.917877,1354.882080 261.927948,1350.604492 
	C262.054230,1297.024170 262.033508,1243.443481 262.384888,1189.951782 
	C284.292389,1205.435425 307.075714,1218.770874 331.425690,1229.232788 
	C345.686493,1235.359863 360.173615,1241.039551 374.832825,1246.131836 
	C384.636444,1249.537231 394.921478,1251.556885 404.991028,1254.196533 
z"/>
<path fill="#13A1A4" opacity="1.000000" stroke="none" 
	d="
M384.600647,195.913223 
	C384.623993,205.790634 384.050812,215.760941 384.041382,225.731796 
	C383.966949,304.530487 384.016357,383.329254 383.958374,462.127991 
	C383.954956,466.765625 383.352142,471.402802 382.671936,476.633423 
	C361.989380,483.153076 342.115387,490.374207 323.254913,499.977570 
	C307.909485,507.791199 293.052979,516.565063 277.825012,524.532654 
	C277.446899,521.678833 277.029388,519.205627 277.028229,516.732178 
	C276.993378,444.071625 276.981842,371.411041 277.059418,298.750580 
	C277.062927,295.487457 278.314545,292.219757 278.267242,288.964600 
	C278.236237,286.830902 276.911560,284.716003 276.166290,282.592682 
	C295.965546,265.563934 315.380798,248.059662 335.688293,231.660294 
	C351.298187,219.054443 368.031525,207.839722 384.600647,195.913223 
z"/>
<path fill="#0D9EA9" opacity="1.000000" stroke="none" 
	d="
M275.892334,282.742523 
	C276.911560,284.716003 278.236237,286.830902 278.267242,288.964600 
	C278.314545,292.219757 277.062927,295.487457 277.059418,298.750580 
	C276.981842,371.411041 276.993378,444.071625 277.028229,516.732178 
	C277.029388,519.205627 277.446899,521.678833 277.610687,524.796631 
	C244.453934,547.069885 214.893585,572.790405 189.523209,603.093872 
	C178.446640,616.324158 168.593719,630.578796 158.185104,644.368286 
	C158.339233,631.132812 158.512436,617.897583 158.641830,604.661865 
	C158.756668,592.914307 158.906937,581.166199 158.887100,569.418579 
	C158.866974,557.506226 158.528442,545.593750 158.559555,533.682007 
	C158.615097,512.410156 158.876633,491.138947 158.987686,469.867096 
	C159.054642,457.045380 158.940369,444.222565 159.044769,431.401367 
	C159.068893,428.438965 159.371658,425.413727 160.057922,422.539551 
	C160.794952,419.452698 159.945068,418.060120 156.441559,418.031586 
	C192.928528,370.331238 230.692490,323.443970 275.892334,282.742523 
z"/>
<path fill="#0C9DA9" opacity="1.000000" stroke="none" 
	d="
M262.050476,1189.862915 
	C262.033508,1243.443481 262.054230,1297.024170 261.927948,1350.604492 
	C261.917877,1354.882080 262.816589,1359.714478 258.075867,1363.003906 
	C246.242111,1353.532959 234.450775,1344.302246 223.369781,1334.285767 
	C188.588959,1302.846191 157.418564,1268.119629 129.906494,1229.744873 
	C129.433838,1227.156494 128.916351,1224.897461 128.694427,1222.609863 
	C128.122528,1216.714722 127.681389,1210.806763 127.188004,1204.903931 
	C127.840752,1204.628296 128.493500,1204.352661 129.146255,1204.077026 
	C131.632690,1206.527710 134.188644,1208.912720 136.584976,1211.448364 
	C138.749344,1213.738647 140.645477,1216.286133 142.854904,1218.528198 
	C143.676300,1219.361572 145.051208,1219.649414 146.173691,1220.186035 
	C146.651199,1219.037231 147.539093,1217.890503 147.544907,1216.739258 
	C147.637360,1198.465942 147.677673,1180.191895 147.602707,1161.918457 
	C147.542587,1147.263062 147.240723,1132.608765 147.174927,1117.953369 
	C147.103226,1101.980469 147.152878,1086.006958 147.259018,1070.034302 
	C147.265427,1069.069580 148.237061,1068.111328 149.341599,1067.222900 
	C167.366379,1096.637451 187.801743,1123.767334 212.485306,1147.313477 
	C228.219254,1162.322510 245.476318,1175.734741 262.050476,1189.862915 
z"/>
<path fill="#6ACE66" opacity="1.000000" stroke="none" 
	d="
M1608.570679,1471.474976 
	C1604.744385,1467.443848 1603.923584,1462.603149 1603.930786,1457.225830 
	C1604.032227,1382.202881 1603.998779,1307.179688 1604.461670,1231.630005 
	C1637.282837,1231.151855 1669.640625,1231.200195 1701.998901,1231.701660 
	C1701.999512,1283.748047 1702.036743,1335.341431 1701.927002,1386.934448 
	C1701.918579,1390.901001 1702.494141,1394.150269 1706.118652,1396.267334 
	C1688.414307,1410.825073 1671.003906,1425.761230 1652.911377,1439.819580 
	C1638.675049,1450.881714 1623.597046,1460.860962 1608.570679,1471.474976 
z"/>
<path fill="#6ED162" opacity="1.000000" stroke="none" 
	d="
M1688.999023,520.746521 
	C1689.210083,513.002563 1689.515015,505.259735 1689.608154,497.514374 
	C1689.721313,488.114166 1689.661987,478.711853 1689.666016,469.310455 
	C1689.671021,457.429260 1689.667358,445.548065 1689.661987,433.666870 
	C1689.657837,424.265472 1689.636963,414.864075 1689.639404,405.462677 
	C1689.641602,396.221405 1689.689087,386.980042 1689.670532,377.738831 
	C1689.652100,368.500885 1689.559082,359.263123 1689.530762,350.025177 
	C1689.500854,340.293365 1689.480347,330.561340 1689.507446,320.829590 
	C1689.540527,308.951935 1689.622314,297.074371 1689.692505,285.196838 
	C1689.725708,279.588776 1690.356445,273.908569 1689.664185,268.393158 
	C1688.974243,262.896729 1691.930054,260.125427 1695.817261,257.134277 
	C1713.620361,272.775208 1731.135376,288.597473 1748.781006,304.724304 
	C1741.598511,304.358124 1741.764404,304.358795 1741.734619,311.728485 
	C1741.675293,326.371368 1741.276001,341.013397 1741.274780,355.655792 
	C1741.273560,370.298370 1741.722412,384.940918 1741.724243,399.583527 
	C1741.725952,414.226227 1741.286499,428.868958 1741.283569,443.511719 
	C1741.280518,458.154419 1741.669189,472.796906 1741.711304,487.440002 
	C1741.737671,496.651642 1741.407837,505.863953 1741.322876,515.076721 
	C1741.307739,516.713867 1741.710083,518.354858 1741.495972,520.443298 
	C1723.714478,520.843872 1706.356812,520.795166 1688.999023,520.746521 
z"/>
<path fill="#6ED162" opacity="1.000000" stroke="none" 
	d="
M1706.432861,1396.133423 
	C1702.494141,1394.150269 1701.918579,1390.901001 1701.927002,1386.934448 
	C1702.036743,1335.341431 1701.999512,1283.748047 1702.462646,1231.628906 
	C1716.950562,1231.151978 1730.975098,1231.200806 1744.999512,1231.249756 
	C1744.999756,1269.656006 1744.928345,1308.062866 1745.130371,1346.468140 
	C1745.147339,1349.698364 1747.001099,1352.918701 1748.205078,1356.518799 
	C1734.521362,1369.928955 1720.634155,1382.964111 1706.432861,1396.133423 
z"/>
<path fill="#1BA59F" opacity="1.000000" stroke="none" 
	d="
M399.324463,1903.207275 
	C399.346527,1902.996948 399.802734,1903.041504 400.030945,1903.068359 
	C399.940216,1903.202515 399.621307,1903.310059 399.324463,1903.207275 
z"/>
<path fill="#FFFFFF" opacity="1.000000" stroke="none" 
	d="
M795.893250,516.399048 
	C814.416443,500.519379 832.540466,484.620514 851.265686,469.464264 
	C865.301575,458.103638 879.957214,447.483032 894.660889,436.986877 
	C899.731323,433.367401 905.779663,431.117920 911.686829,428.034119 
	C916.138428,425.882324 920.284485,423.938995 924.551331,421.939056 
	C924.551331,438.022736 924.726990,453.636475 924.487244,469.243866 
	C924.337097,479.019684 923.355591,488.780640 923.105591,498.557434 
	C922.320496,529.263672 920.872742,559.988831 921.405396,590.676636 
	C921.640991,604.252197 925.789551,617.803772 928.586060,631.278137 
	C931.220093,643.969666 934.477844,656.530579 937.334473,669.177612 
	C939.128967,677.122070 936.238831,683.393372 929.474792,687.574402 
	C920.138123,693.345520 910.564514,698.733337 900.878174,704.562439 
	C884.437927,715.164185 867.764648,724.858643 852.102539,735.977478 
	C833.674255,749.060120 816.122925,763.377869 797.720520,777.580200 
	C760.652100,808.171448 727.290894,841.683594 695.444824,876.749695 
	C690.430786,882.270630 685.740784,888.085876 680.599243,893.925781 
	C661.478516,917.123779 641.662415,939.427979 624.067871,963.365112 
	C595.685974,1001.978394 568.800842,1041.690674 541.191956,1080.874268 
	C537.463684,1086.165649 533.599060,1091.466309 529.105530,1096.090332 
	C520.667786,1104.772949 510.511902,1110.626953 498.238892,1105.740479 
	C492.010834,1103.260986 486.928040,1097.904785 481.194885,1093.529785 
	C477.929901,1088.706177 474.622528,1084.312622 471.692596,1079.680298 
	C446.261017,1039.473511 416.169891,1003.223877 380.259003,971.924805 
	C352.040833,947.330505 321.421082,926.250427 287.694946,909.122314 
	C273.520325,902.646973 259.721924,896.186768 245.733017,890.169556 
	C234.042572,885.140930 221.825027,881.258240 210.397202,875.720154 
	C198.200470,869.809570 194.989044,859.377686 200.479599,847.067688 
	C202.360153,842.851379 204.915878,838.891357 207.503906,835.043396 
	C217.414001,820.308899 229.855988,807.853088 243.348236,795.960693 
	C257.358765,784.603516 272.261383,775.221069 288.816498,768.979919 
	C301.285217,764.279297 314.252594,760.901367 327.423218,756.968201 
	C336.136322,756.841858 344.537750,755.743958 352.686951,756.730103 
	C366.813568,758.439697 377.421478,766.812012 386.142517,777.638123 
	C400.449310,795.398071 414.673767,813.224365 429.036316,831.346558 
	C454.204590,863.401123 477.516327,896.335327 497.426758,932.711182 
	C499.336243,929.196594 500.725342,926.766479 501.997833,924.276672 
	C509.376984,909.838074 516.688660,895.364807 524.108215,880.947083 
	C527.344788,874.657593 530.783508,868.472107 534.409424,862.030884 
	C562.727112,810.304565 593.163025,760.256958 626.829041,712.211304 
	C637.689331,696.712280 648.972656,681.509705 660.062500,666.171509 
	C672.289429,651.050171 684.365906,635.804077 696.773071,620.832031 
	C727.396851,583.877625 760.636536,549.392334 795.893250,516.399048 
z"/>
<path fill="#FFFFFF" opacity="1.000000" stroke="none" 
	d="
M1688.535400,520.818848 
	C1706.356812,520.795166 1723.714478,520.843872 1741.535889,520.820190 
	C1750.107300,521.163208 1758.463745,520.468567 1766.271851,522.219604 
	C1783.777832,526.145447 1795.827881,537.384583 1799.369995,554.944946 
	C1804.211182,578.946106 1795.010010,600.327393 1768.129150,609.435425 
	C1764.744019,610.582336 1760.948120,610.911194 1757.338013,610.935059 
	C1735.535400,611.079163 1713.731445,611.024048 1690.998657,611.037415 
	C1674.951172,611.027039 1659.833008,610.988892 1644.714722,611.008057 
	C1616.142700,611.044312 1587.570557,611.113464 1558.533936,611.104248 
	C1541.620972,611.027283 1525.172852,610.988770 1508.724609,611.008789 
	C1480.815674,611.042786 1452.906738,611.113647 1424.533203,611.104004 
	C1387.711670,611.082581 1351.354858,611.126221 1314.533325,611.104309 
	C1284.711914,611.082520 1255.354980,611.126343 1225.533691,611.103760 
	C1194.378662,611.081299 1163.688110,611.125183 1132.532959,611.103027 
	C1104.927368,611.024353 1077.782593,611.253174 1050.647339,610.842407 
	C1043.132812,610.728638 1035.646851,608.714478 1028.147827,607.572266 
	C1001.236938,594.712524 994.945557,565.604858 1006.411987,544.673096 
	C1014.477844,529.949097 1026.951294,521.531982 1044.557617,520.840759 
	C1066.926514,520.823059 1088.858765,520.911133 1110.791138,520.928284 
	C1136.217041,520.948181 1161.642822,520.905762 1187.532227,520.818237 
	C1206.434448,520.809875 1224.873169,520.913147 1243.312012,520.927856 
	C1269.564209,520.948730 1295.816528,520.904602 1322.532349,520.816284 
	C1339.276855,520.808655 1355.557861,520.917969 1371.838745,520.927551 
	C1402.248779,520.945374 1432.658691,520.905396 1463.532227,520.817932 
	C1485.422607,520.809387 1506.849243,520.902649 1528.276001,520.926880 
	C1549.540649,520.950867 1570.805298,520.905273 1592.533691,520.818604 
	C1624.688843,520.795105 1656.380249,520.843140 1688.535400,520.818848 
z"/>
<path fill="#FFFFFF" opacity="1.000000" stroke="none" 
	d="
M1745.463135,1231.177246 
	C1730.975098,1231.200806 1716.950562,1231.151978 1702.462402,1231.175903 
	C1669.640625,1231.200195 1637.282837,1231.151855 1604.461182,1231.177124 
	C1582.567383,1231.187744 1561.137329,1231.093018 1539.707275,1231.070312 
	C1516.445923,1231.045654 1493.184448,1231.087769 1469.459351,1231.175415 
	C1450.883911,1231.187744 1432.772217,1231.084717 1414.660522,1231.072266 
	C1383.748047,1231.051147 1352.835571,1231.086670 1321.459473,1231.173340 
	C1297.055664,1231.186523 1273.115479,1231.100464 1249.175293,1231.070312 
	C1229.388428,1231.045410 1209.601562,1231.086304 1189.414795,1231.173950 
	C1168.742065,1231.187256 1148.469238,1231.089111 1128.196533,1231.070557 
	C1101.104980,1231.045776 1074.013550,1231.082764 1046.458252,1231.167725 
	C1021.123901,1232.013062 999.284485,1209.214844 1001.160522,1183.614014 
	C1002.468018,1165.771729 1011.430481,1152.744385 1028.263184,1144.558105 
	C1035.064819,1143.174805 1041.213867,1141.202881 1047.380615,1141.145874 
	C1084.916748,1140.798828 1122.457031,1140.887695 1160.460205,1140.900146 
	C1192.675293,1140.978516 1224.425781,1141.010498 1256.176392,1140.989136 
	C1278.116211,1140.974365 1300.056030,1140.886230 1322.460327,1140.899658 
	C1353.510376,1140.978027 1384.095947,1141.011230 1414.681519,1140.989868 
	C1436.786499,1140.974487 1458.891602,1140.886353 1481.461182,1140.898193 
	C1489.234375,1140.977295 1496.543091,1141.007324 1503.851685,1140.996704 
	C1537.900879,1140.947510 1571.950073,1140.886963 1606.463623,1140.897461 
	C1639.285034,1140.920044 1671.642090,1140.875488 1703.999023,1140.830933 
	C1721.484741,1140.886963 1738.970337,1140.956299 1756.456055,1140.995117 
	C1776.846680,1141.040405 1795.485596,1155.335327 1799.549194,1175.256348 
	C1805.982910,1206.795410 1783.662842,1231.092285 1755.919800,1231.056274 
	C1752.588745,1231.052002 1749.257812,1231.087769 1745.463135,1231.177246 
z"/>
<path fill="#FFFFFF" opacity="1.000000" stroke="none" 
	d="
M1688.999512,830.829407 
	C1711.485718,830.885559 1733.972046,830.947937 1756.458252,830.996033 
	C1776.832642,831.039612 1795.477173,845.362915 1799.554688,865.259338 
	C1806.061401,897.009949 1783.174194,921.452576 1755.403564,921.049377 
	C1738.581909,920.805054 1721.753418,921.025085 1703.999023,921.037964 
	C1669.713013,921.082947 1636.356201,921.126587 1602.534668,921.105042 
	C1591.771484,921.027954 1581.472900,920.993652 1571.174316,921.008179 
	C1540.115479,921.052002 1509.056641,921.114868 1477.533203,921.105164 
	C1442.493408,921.026855 1407.917969,920.992981 1373.342651,921.008911 
	C1355.227295,921.017273 1337.111938,921.113159 1318.531982,921.104858 
	C1281.662720,921.026978 1245.257812,920.994568 1208.853027,921.008972 
	C1191.900879,921.015686 1174.948730,921.113159 1157.532104,921.104370 
	C1121.595337,921.026123 1086.120972,921.205933 1050.652222,920.844849 
	C1043.140991,920.768372 1035.649902,918.715332 1028.149536,917.572998 
	C1001.304504,904.743164 995.205688,875.905518 1006.201416,854.936829 
	C1010.997070,845.791565 1018.040344,838.947754 1028.262939,834.558228 
	C1035.059082,833.174438 1041.198608,831.233459 1047.364014,831.146729 
	C1075.237671,830.754150 1103.118896,830.886108 1131.461670,830.898010 
	C1162.283447,830.920654 1192.640869,830.874451 1223.462646,830.896484 
	C1253.284302,830.919250 1282.641479,830.873779 1312.463135,830.896667 
	C1349.617920,830.919800 1386.308350,830.874573 1423.463257,830.897278 
	C1437.883789,830.976196 1451.840088,831.011475 1465.796265,830.993225 
	C1496.530396,830.952942 1527.264526,830.885498 1558.463135,830.896790 
	C1570.722778,830.975708 1582.518066,831.010254 1594.313354,830.994080 
	C1625.875366,830.950867 1657.437500,830.885803 1688.999512,830.829407 
z"/>
<path fill="#45BB81" opacity="1.000000" stroke="none" 
	d="
M1028.121338,918.069092 
	C1035.649902,918.715332 1043.140991,920.768372 1050.652222,920.844849 
	C1086.120972,921.205933 1121.595337,921.026123 1157.672852,921.412842 
	C1161.619873,924.430969 1162.062256,927.990479 1162.057251,932.013855 
	C1161.976440,997.565735 1162.035522,1063.117798 1161.914185,1128.669556 
	C1161.906738,1132.724487 1160.663940,1136.777222 1159.995850,1140.830933 
	C1122.457031,1140.887695 1084.916748,1140.798828 1047.380615,1141.145874 
	C1041.213867,1141.202881 1035.064819,1143.174805 1028.530029,1144.360596 
	C1028.101685,1126.468628 1028.005737,1108.477661 1028.008423,1090.486816 
	C1028.016846,1033.179565 1028.062134,975.872375 1028.121338,918.069092 
z"/>
<path fill="#45BB81" opacity="1.000000" stroke="none" 
	d="
M1130.997314,830.829102 
	C1103.118896,830.886108 1075.237671,830.754150 1047.364014,831.146729 
	C1041.198608,831.233459 1035.059082,833.174438 1028.530151,834.360474 
	C1028.101685,816.801636 1028.005615,799.143982 1028.008179,781.486267 
	C1028.016724,723.845947 1028.061401,666.205688 1028.119873,608.068848 
	C1035.646851,608.714478 1043.132812,610.728638 1050.647339,610.842407 
	C1077.782593,611.253174 1104.927368,611.024353 1132.645386,611.460510 
	C1133.814819,614.931274 1134.920044,617.977722 1134.924561,621.025940 
	C1135.023804,686.906128 1134.964966,752.786621 1135.074341,818.666809 
	C1135.082153,823.350281 1134.681030,827.548279 1130.997314,830.829102 
z"/>
<path fill="#FEFFFF" opacity="1.000000" stroke="none" 
	d="
M262.384888,1189.951782 
	C245.476318,1175.734741 228.219254,1162.322510 212.485306,1147.313477 
	C187.801743,1123.767334 167.366379,1096.637451 149.689087,1067.067871 
	C139.291641,1045.377930 128.254761,1024.277222 119.192177,1002.360168 
	C108.419785,976.308228 102.277306,948.798340 98.327652,920.880188 
	C96.913261,910.882507 95.684662,900.814026 95.207970,890.738342 
	C94.440147,874.509216 93.824516,858.235168 94.189178,842.003540 
	C94.434120,831.100525 96.333359,820.218567 97.748856,809.360657 
	C104.827354,755.062988 122.729256,704.501953 150.479843,657.369873 
	C152.926407,653.214539 155.501190,649.134705 158.100769,644.694031 
	C168.593719,630.578796 178.446640,616.324158 189.523209,603.093872 
	C214.893585,572.790405 244.453934,547.069885 277.765350,525.177124 
	C293.052979,516.565063 307.909485,507.791199 323.254913,499.977570 
	C342.115387,490.374207 361.989380,483.153076 382.655701,477.051544 
	C403.004883,472.764130 422.944885,468.261108 443.052155,464.703674 
	C453.164734,462.914520 463.567657,462.444824 473.863708,462.092926 
	C487.617737,461.622833 501.395508,461.847015 515.578979,461.715210 
	C538.385315,464.579834 560.943115,466.588379 583.124146,470.653198 
	C611.667908,475.884033 638.848999,485.908936 665.559937,498.158752 
	C681.208557,507.147797 696.693176,515.739685 711.699646,525.098328 
	C719.536438,529.985596 726.532166,536.221619 734.218872,542.085815 
	C721.364624,555.984314 708.979919,569.375122 696.479248,582.891357 
	C684.747131,576.222961 673.218628,569.670227 661.108398,562.814209 
	C656.755371,560.506165 653.049072,558.366028 649.201965,556.519165 
	C628.343628,546.505554 606.966553,537.682495 584.380249,532.542419 
	C567.418518,528.682373 550.136414,526.230286 532.550476,523.059814 
	C523.740662,522.343689 515.383484,521.329163 507.012421,521.198059 
	C497.578156,521.050293 488.090698,521.248779 478.699188,522.100159 
	C462.700867,523.550354 446.759399,525.628357 430.378235,527.482300 
	C420.952393,529.718445 411.867859,531.650085 402.946350,534.161072 
	C375.903595,541.772339 349.981476,552.104980 325.544952,566.820007 
	C314.247650,573.997375 302.984314,580.657166 292.417419,588.282104 
	C273.953094,601.605774 257.045227,616.758545 241.837524,634.210144 
	C230.995605,648.080200 219.631958,661.237061 210.043030,675.580322 
	C176.351501,725.976807 158.596039,782.049866 154.260376,842.216064 
	C152.667404,864.321960 153.748734,886.623230 157.101776,908.723267 
	C168.729599,985.362061 201.126328,1051.535400 256.361938,1106.165283 
	C264.969452,1114.678467 274.573883,1122.183716 283.886139,1130.452881 
	C317.542877,1156.682861 354.324951,1176.369385 394.823822,1188.925537 
	C422.567139,1197.526733 450.873810,1203.064697 480.413696,1203.999756 
	C517.368713,1206.306641 553.260132,1202.154053 588.470581,1192.469482 
	C622.335022,1183.155029 654.225281,1169.331299 683.462158,1149.033569 
	C686.177429,1147.563232 688.603577,1146.208618 690.881897,1144.639404 
	C718.119446,1125.880005 741.640137,1103.114258 762.583984,1077.637207 
	C778.052979,1058.820068 791.944824,1038.921265 802.754333,1016.999390 
	C817.304932,989.981262 827.559875,961.357727 832.819885,931.187012 
	C835.624512,915.099792 837.130432,898.680664 837.787354,882.353638 
	C838.464844,865.517334 837.937988,848.577881 836.909241,831.746460 
	C836.215454,820.395447 833.482666,809.183777 832.139160,797.853088 
	C831.076355,788.889221 832.868835,780.137878 840.178223,774.346802 
	C851.968384,765.005798 864.431274,756.513855 877.771423,746.819336 
	C881.761292,758.660095 885.944214,769.299805 888.934448,780.264771 
	C900.078125,821.128601 901.825317,862.704773 897.159607,904.635376 
	C890.767090,962.084717 873.142334,1015.914307 844.258972,1065.972656 
	C823.877686,1101.296021 798.425110,1132.603149 768.188904,1159.989014 
	C764.995667,1162.881226 761.574524,1165.521973 758.112549,1168.578979 
	C709.606201,1209.293823 654.876404,1237.190063 593.715454,1252.441284 
	C591.298218,1253.044067 588.859558,1253.560791 586.156250,1254.366455 
	C566.124634,1257.513062 546.446472,1261.326050 526.587219,1263.036011 
	C508.897461,1264.559326 490.990784,1264.337158 473.209717,1263.832520 
	C450.421692,1263.186035 428.012024,1259.091553 405.383942,1254.180298 
	C394.921478,1251.556885 384.636444,1249.537231 374.832825,1246.131836 
	C360.173615,1241.039551 345.686493,1235.359863 331.425690,1229.232788 
	C307.075714,1218.770874 284.292389,1205.435425 262.384888,1189.951782 
z"/>
<path fill="#30B090" opacity="1.000000" stroke="none" 
	d="
M802.414673,1016.863281 
	C791.944824,1038.921265 778.052979,1058.820068 762.583984,1077.637207 
	C741.640137,1103.114258 718.119446,1125.880005 690.881897,1144.639404 
	C688.603577,1146.208618 686.177429,1147.563232 683.244385,1148.676880 
	C682.445923,1145.870850 682.029175,1143.405640 682.028137,1140.940063 
	C681.994019,1061.494141 682.011780,982.048279 681.953674,902.602417 
	C681.951477,899.656311 681.267273,896.710815 680.900940,893.765015 
	C685.740784,888.085876 690.430786,882.270630 695.444824,876.749695 
	C727.290894,841.683594 760.652100,808.171448 797.565796,777.869873 
	C798.587952,780.547180 799.906189,783.353943 799.910461,786.162659 
	C800.023071,860.444885 799.979187,934.727417 800.087402,1009.009705 
	C800.091187,1011.583130 801.383362,1014.154785 802.414673,1016.863281 
z"/>
<path fill="#68CD67" opacity="1.000000" stroke="none" 
	d="
M1689.108398,830.479248 
	C1657.437500,830.885803 1625.875366,830.950867 1594.313354,830.994080 
	C1582.518066,831.010254 1570.722778,830.975708 1558.569336,830.557251 
	C1559.140747,826.725891 1560.873047,823.303589 1560.881226,819.877075 
	C1561.041504,753.676086 1561.029297,687.474426 1560.914673,621.273193 
	C1560.908813,617.904114 1559.665649,614.537048 1558.998535,611.168945 
	C1587.570557,611.113464 1616.142700,611.044312 1644.714722,611.008057 
	C1659.833008,610.988892 1674.951172,611.027039 1690.534058,611.104187 
	C1691.213257,629.985107 1691.510010,648.800659 1691.619263,667.617249 
	C1691.727417,686.255005 1691.713867,704.894165 1691.630127,723.532166 
	C1691.540527,743.490295 1691.277344,763.447571 1691.146606,783.405579 
	C1691.057983,796.930115 1691.142944,810.456360 1690.952515,823.979065 
	C1690.923706,826.036804 1689.822388,828.079407 1689.108398,830.479248 
z"/>
<path fill="#6ACE66" opacity="1.000000" stroke="none" 
	d="
M1602.999268,921.170227 
	C1636.356201,921.126587 1669.713013,921.082947 1703.534424,921.104614 
	C1704.137451,934.996704 1704.277588,948.823547 1704.413818,962.650391 
	C1704.530518,974.506958 1704.739624,986.363708 1704.720581,998.220032 
	C1704.708984,1005.462036 1704.201172,1012.703003 1704.174927,1019.945312 
	C1704.146851,1027.692627 1704.491089,1035.440552 1704.548462,1043.189087 
	C1704.619263,1052.739380 1704.564575,1062.290405 1704.559082,1071.841187 
	C1704.553833,1080.899536 1704.542236,1089.957764 1704.532959,1099.016113 
	C1704.523071,1108.730469 1704.557617,1118.445190 1704.480103,1128.159058 
	C1704.448486,1132.110718 1704.172852,1136.060425 1704.003662,1140.421021 
	C1671.642090,1140.875488 1639.285034,1140.920044 1606.559937,1140.501953 
	C1606.461182,1137.070435 1606.963745,1134.101807 1606.965820,1131.132935 
	C1607.010498,1065.203247 1606.965210,999.273499 1607.073975,933.343994 
	C1607.081665,928.658875 1606.686157,924.454712 1602.999268,921.170227 
z"/>
<path fill="#24AA98" opacity="1.000000" stroke="none" 
	d="
M532.996948,523.151367 
	C550.136414,526.230286 567.418518,528.682373 584.380249,532.542419 
	C606.966553,537.682495 628.343628,546.505554 649.201965,556.519165 
	C653.049072,558.366028 656.755371,560.506165 660.759766,562.768921 
	C660.662537,565.488098 660.049072,567.948792 660.044861,570.410522 
	C659.990906,602.011047 660.024048,633.611694 660.048767,665.691895 
	C648.972656,681.509705 637.689331,696.712280 626.829041,712.211304 
	C593.163025,760.256958 562.727112,810.304565 534.242676,861.630676 
	C533.531250,858.639771 533.034363,855.840637 533.033325,853.041443 
	C532.993103,743.078064 532.997986,633.114685 532.996948,523.151367 
z"/>
<path fill="#16A2A3" opacity="1.000000" stroke="none" 
	d="
M479.995239,1203.894775 
	C450.873810,1203.064697 422.567139,1197.526733 394.823822,1188.925537 
	C354.324951,1176.369385 317.542877,1156.682861 284.212708,1130.238892 
	C285.246826,1127.028198 286.870789,1124.333374 286.885651,1121.629639 
	C287.062622,1089.474365 286.991364,1057.317627 287.010620,1025.161377 
	C287.013092,1021.022217 287.214508,1016.883362 287.228241,1012.744019 
	C287.266571,1001.193298 287.220123,989.642151 287.272186,978.091553 
	C287.325714,966.215698 287.434601,954.339844 287.559174,942.464478 
	C287.675049,931.419128 287.843414,920.374390 287.988708,909.329346 
	C321.421082,926.250427 352.040833,947.330505 380.259003,971.924805 
	C416.169891,1003.223877 446.261017,1039.473511 471.692596,1079.680298 
	C474.622528,1084.312622 477.929901,1088.706177 480.944031,1093.877930 
	C480.550507,1096.831543 480.039001,1099.117065 480.035461,1101.403442 
	C479.982605,1135.567261 479.996826,1169.730957 479.995239,1203.894775 
z"/>
<path fill="#1EA79C" opacity="1.000000" stroke="none" 
	d="
M532.550476,523.059814 
	C532.997986,633.114685 532.993103,743.078064 533.033325,853.041443 
	C533.034363,855.840637 533.531250,858.639771 533.963623,861.839111 
	C530.783508,868.472107 527.344788,874.657593 524.108215,880.947083 
	C516.688660,895.364807 509.376984,909.838074 501.997833,924.276672 
	C500.725342,926.766479 499.336243,929.196594 497.426758,932.711182 
	C477.516327,896.335327 454.204590,863.401123 429.379883,831.197144 
	C430.413116,828.166748 431.896576,825.610474 431.899750,823.052429 
	C432.017822,727.123840 432.008911,631.195068 431.948914,535.266418 
	C431.947296,532.658203 431.195862,530.050476 430.794067,527.442627 
	C446.759399,525.628357 462.700867,523.550354 478.699188,522.100159 
	C488.090698,521.248779 497.578156,521.050293 507.012421,521.198059 
	C515.383484,521.329163 523.740662,522.343689 532.550476,523.059814 
z"/>
<path fill="#0C9DA9" opacity="1.000000" stroke="none" 
	d="
M287.694946,909.122314 
	C287.843414,920.374390 287.675049,931.419128 287.559174,942.464478 
	C287.434601,954.339844 287.325714,966.215698 287.272186,978.091553 
	C287.220123,989.642151 287.266571,1001.193298 287.228241,1012.744019 
	C287.214508,1016.883362 287.013092,1021.022217 287.010620,1025.161377 
	C286.991364,1057.317627 287.062622,1089.474365 286.885651,1121.629639 
	C286.870789,1124.333374 285.246826,1127.028198 284.043884,1129.941162 
	C274.573883,1122.183716 264.969452,1114.678467 256.361938,1106.165283 
	C201.126328,1051.535400 168.729599,985.362061 157.101776,908.723267 
	C153.748734,886.623230 152.667404,864.321960 154.260376,842.216064 
	C158.596039,782.049866 176.351501,725.976807 210.043030,675.580322 
	C219.631958,661.237061 230.995605,648.080200 242.156921,634.410034 
	C243.178925,636.649658 243.943878,638.858032 243.947479,641.067566 
	C244.018036,684.285950 244.051041,727.504578 243.956100,770.722778 
	C243.937546,779.174866 243.352646,787.625732 243.028931,796.077148 
	C229.855988,807.853088 217.414001,820.308899 207.503906,835.043396 
	C204.915878,838.891357 202.360153,842.851379 200.479599,847.067688 
	C194.989044,859.377686 198.200470,869.809570 210.397202,875.720154 
	C221.825027,881.258240 234.042572,885.140930 245.733017,890.169556 
	C259.721924,896.186768 273.520325,902.646973 287.694946,909.122314 
z"/>
<path fill="#25AA97" opacity="1.000000" stroke="none" 
	d="
M480.413696,1203.999756 
	C479.996826,1169.730957 479.982605,1135.567261 480.035461,1101.403442 
	C480.039001,1099.117065 480.550507,1096.831543 481.076630,1094.197266 
	C486.928040,1097.904785 492.010834,1103.260986 498.238892,1105.740479 
	C510.511902,1110.626953 520.667786,1104.772949 529.105530,1096.090332 
	C533.599060,1091.466309 537.463684,1086.165649 541.191956,1080.874268 
	C568.800842,1041.690674 595.685974,1001.978394 624.067871,963.365112 
	C641.662415,939.427979 661.478516,917.123779 680.599243,893.925781 
	C681.267273,896.710815 681.951477,899.656311 681.953674,902.602417 
	C682.011780,982.048279 681.994019,1061.494141 682.028137,1140.940063 
	C682.029175,1143.405640 682.445923,1145.870850 682.886597,1148.692993 
	C654.225281,1169.331299 622.335022,1183.155029 588.470581,1192.469482 
	C553.260132,1202.154053 517.368713,1206.306641 480.413696,1203.999756 
z"/>
<path fill="#17A3A2" opacity="1.000000" stroke="none" 
	d="
M430.378235,527.482239 
	C431.195862,530.050476 431.947296,532.658203 431.948914,535.266418 
	C432.008911,631.195068 432.017822,727.123840 431.899750,823.052429 
	C431.896576,825.610474 430.413116,828.166748 429.276459,830.873291 
	C414.673767,813.224365 400.449310,795.398071 386.142517,777.638123 
	C377.421478,766.812012 366.813568,758.439697 352.686951,756.730103 
	C344.537750,755.743958 336.136322,756.841858 327.382111,756.553711 
	C326.611450,753.638000 326.043549,751.170654 326.041412,748.702759 
	C325.991760,691.152710 326.005127,633.602539 325.998962,576.052429 
	C325.998627,572.947266 325.929535,569.842163 325.892456,566.737000 
	C349.981476,552.104980 375.903595,541.772339 402.946350,534.161072 
	C411.867859,531.650085 420.952393,529.718445 430.378235,527.482239 
z"/>
<path fill="#109FA7" opacity="1.000000" stroke="none" 
	d="
M325.544922,566.820007 
	C325.929535,569.842163 325.998627,572.947266 325.998962,576.052429 
	C326.005127,633.602539 325.991760,691.152710 326.041412,748.702759 
	C326.043549,751.170654 326.611450,753.638000 326.956909,756.520142 
	C314.252594,760.901367 301.285217,764.279297 288.816498,768.979919 
	C272.261383,775.221069 257.358765,784.603516 243.348236,795.960693 
	C243.352646,787.625732 243.937546,779.174866 243.956100,770.722778 
	C244.051041,727.504578 244.018036,684.285950 243.947479,641.067566 
	C243.943878,638.858032 243.178925,636.649658 242.449066,634.240845 
	C257.045227,616.758545 273.953094,601.605774 292.417419,588.282104 
	C302.984314,580.657166 314.247650,573.997375 325.544922,566.820007 
z"/>
<path fill="#5FC96E" opacity="1.000000" stroke="none" 
	d="
M1558.533813,611.104248 
	C1559.665649,614.537048 1560.908813,617.904114 1560.914673,621.273193 
	C1561.029297,687.474426 1561.041504,753.676086 1560.881226,819.877075 
	C1560.873047,823.303589 1559.140747,826.725891 1558.104980,830.489685 
	C1527.264526,830.885498 1496.530396,830.952942 1465.796265,830.993225 
	C1451.840088,831.011475 1437.883789,830.976196 1423.569458,830.557739 
	C1424.140869,826.722473 1425.872681,823.296631 1425.881226,819.866577 
	C1426.042114,754.434021 1426.018188,689.000916 1425.957031,623.567993 
	C1425.953247,619.434753 1425.331787,615.302002 1424.997803,611.169067 
	C1452.906738,611.113647 1480.815674,611.042786 1508.724609,611.008789 
	C1525.172852,610.988770 1541.620972,611.027283 1558.533813,611.104248 
z"/>
<path fill="#56C474" opacity="1.000000" stroke="none" 
	d="
M1424.533203,611.104004 
	C1425.331787,615.302002 1425.953247,619.434753 1425.957031,623.567993 
	C1426.018188,689.000916 1426.042114,754.434021 1425.881226,819.866577 
	C1425.872681,823.296631 1424.140869,826.722473 1423.105103,830.489746 
	C1386.308350,830.874573 1349.617920,830.919800 1312.604858,830.590576 
	C1316.602173,827.708069 1317.082397,823.772766 1317.074829,819.171448 
	C1316.965454,753.210632 1317.029419,687.249451 1316.914673,621.288635 
	C1316.908813,617.914673 1315.665283,614.542725 1314.997925,611.169861 
	C1351.354858,611.126221 1387.711670,611.082581 1424.533203,611.104004 
z"/>
<path fill="#4BBE7C" opacity="1.000000" stroke="none" 
	d="
M1131.461670,830.897949 
	C1134.681030,827.548279 1135.082153,823.350281 1135.074341,818.666809 
	C1134.964966,752.786621 1135.023804,686.906128 1134.924561,621.025940 
	C1134.920044,617.977722 1133.814819,614.931274 1133.109863,611.526489 
	C1163.688110,611.125183 1194.378662,611.081299 1225.629761,611.468445 
	C1226.793457,615.298157 1227.917236,618.695923 1227.922729,622.095581 
	C1228.027222,686.849915 1227.966187,751.604553 1228.060059,816.358948 
	C1228.068115,821.918640 1228.378540,827.288696 1222.998291,830.828247 
	C1192.640869,830.874451 1162.283447,830.920654 1131.461670,830.897949 
z"/>
<path fill="#4FC179" opacity="1.000000" stroke="none" 
	d="
M1223.462646,830.896484 
	C1228.378540,827.288696 1228.068115,821.918640 1228.060059,816.358948 
	C1227.966187,751.604553 1228.027222,686.849915 1227.922729,622.095581 
	C1227.917236,618.695923 1226.793457,615.298157 1226.094238,611.534790 
	C1255.354980,611.126343 1284.711914,611.082520 1314.533325,611.104309 
	C1315.665283,614.542725 1316.908813,617.914673 1316.914673,621.288635 
	C1317.029419,687.249451 1316.965454,753.210632 1317.074829,819.171448 
	C1317.082397,823.772766 1316.602173,827.708069 1312.140625,830.522217 
	C1282.641479,830.873779 1253.284302,830.919250 1223.462646,830.896484 
z"/>
<path fill="#4EC079" opacity="1.000000" stroke="none" 
	d="
M1160.460205,1140.900146 
	C1160.663940,1136.777222 1161.906738,1132.724487 1161.914185,1128.669556 
	C1162.035522,1063.117798 1161.976440,997.565735 1162.057251,932.013855 
	C1162.062256,927.990479 1161.619873,924.430969 1158.137451,921.478027 
	C1174.948730,921.113159 1191.900879,921.015686 1208.853027,921.008972 
	C1245.257812,920.994568 1281.662720,921.026978 1318.677856,921.414612 
	C1321.878906,923.864868 1323.184692,926.323914 1323.122681,929.882202 
	C1322.967163,938.813660 1323.325317,947.752625 1323.338379,956.688782 
	C1323.355713,968.603027 1323.232666,980.517395 1323.186157,992.431763 
	C1323.144165,1003.203735 1323.078491,1013.975891 1323.105347,1024.747803 
	C1323.142456,1039.641357 1323.287964,1054.534668 1323.329102,1069.428223 
	C1323.370605,1084.487183 1323.496216,1099.548584 1323.283813,1114.604614 
	C1323.160400,1123.351074 1322.444946,1132.089111 1321.995850,1140.830933 
	C1300.056030,1140.886230 1278.116211,1140.974365 1256.176392,1140.989136 
	C1224.425781,1141.010498 1192.675293,1140.978516 1160.460205,1140.900146 
z"/>
<path fill="#59C672" opacity="1.000000" stroke="none" 
	d="
M1322.460205,1140.899658 
	C1322.444946,1132.089111 1323.160400,1123.351074 1323.283813,1114.604614 
	C1323.496216,1099.548584 1323.370605,1084.487183 1323.329102,1069.428223 
	C1323.287964,1054.534668 1323.142456,1039.641357 1323.105347,1024.747803 
	C1323.078491,1013.975891 1323.144165,1003.203735 1323.186157,992.431763 
	C1323.232666,980.517395 1323.355713,968.603027 1323.338379,956.688782 
	C1323.325317,947.752625 1322.967163,938.813660 1323.122681,929.882202 
	C1323.184692,926.323914 1321.878906,923.864868 1319.142334,921.479248 
	C1337.111938,921.113159 1355.227295,921.017273 1373.342651,921.008911 
	C1407.917969,920.992981 1442.493408,921.026855 1477.666260,921.403564 
	C1479.383179,923.687439 1481.415161,925.580566 1481.473511,927.532715 
	C1481.854004,940.258118 1481.894897,952.996521 1481.877686,965.730469 
	C1481.854248,983.092407 1481.587646,1000.454346 1481.595581,1017.816162 
	C1481.604492,1036.998657 1481.976929,1056.181885 1481.877563,1075.363281 
	C1481.764648,1097.186646 1481.305298,1119.008179 1480.996582,1140.830566 
	C1458.891602,1140.886353 1436.786499,1140.974487 1414.681519,1140.989868 
	C1384.095947,1141.011230 1353.510376,1140.978027 1322.460205,1140.899658 
z"/>
<path fill="#62CA6B" opacity="1.000000" stroke="none" 
	d="
M1481.461182,1140.898193 
	C1481.305298,1119.008179 1481.764648,1097.186646 1481.877563,1075.363281 
	C1481.976929,1056.181885 1481.604492,1036.998657 1481.595581,1017.816162 
	C1481.587646,1000.454346 1481.854248,983.092407 1481.877686,965.730469 
	C1481.894897,952.996521 1481.854004,940.258118 1481.473511,927.532715 
	C1481.415161,925.580566 1479.383179,923.687439 1478.130859,921.468628 
	C1509.056641,921.114868 1540.115479,921.052002 1571.174316,921.008179 
	C1581.472900,920.993652 1591.771484,921.027954 1602.534668,921.105042 
	C1606.686157,924.454712 1607.081665,928.658875 1607.073975,933.343994 
	C1606.965210,999.273499 1607.010498,1065.203247 1606.965820,1131.132935 
	C1606.963745,1134.101807 1606.461182,1137.070435 1606.095459,1140.434814 
	C1571.950073,1140.886963 1537.900879,1140.947510 1503.851685,1140.996704 
	C1496.543091,1141.007324 1489.234375,1140.977295 1481.461182,1140.898193 
z"/>
</svg>